<?xml version="1.0" standalone="no"?>
<!DOCTYPE svg PUBLIC "-//W3C//DTD SVG 20010904//EN"
 "http://www.w3.org/TR/2001/REC-SVG-20010904/DTD/svg10.dtd">
<svg version="1.0" xmlns="http://www.w3.org/2000/svg"
 width="1066.000000pt" height="1066.000000pt" viewBox="0 0 1066.000000 1066.000000"
 preserveAspectRatio="xMidYMid meet">
<metadata>
Created by potrace 1.11, written by Peter Selinger 2001-2013
</metadata>
<g transform="translate(0.000000,1066.000000) scale(0.100000,-0.100000)"
fill="#000000" stroke="none">
<path d="M3993 10635 c-18 -8 -79 -41 -135 -74 -57 -33 -122 -64 -146 -69 -63
-15 -296 2 -553 40 -201 29 -247 32 -454 33 -195 0 -239 -3 -290 -18 -84 -26
-141 -62 -172 -108 -24 -37 -26 -47 -25 -142 1 -56 7 -180 13 -275 17 -251 -1
-737 -35 -938 -17 -103 -56 -191 -107 -240 l-39 -38 -46 22 c-25 12 -69 40
-98 62 -179 136 -473 177 -646 92 -48 -23 -59 -35 -84 -85 -40 -81 -46 -182
-18 -293 28 -109 50 -265 57 -414 3 -69 13 -192 22 -275 18 -165 12 -277 -27
-478 -23 -118 -50 -341 -50 -408 0 -121 78 -375 160 -524 42 -77 72 -111 133
-158 48 -36 64 -68 98 -199 20 -77 47 -143 95 -235 87 -167 145 -261 183 -297
17 -17 31 -35 31 -43 0 -25 -63 -83 -168 -154 -150 -101 -174 -121 -216 -182
-79 -115 -111 -268 -121 -592 -4 -129 -12 -219 -21 -255 -20 -70 -68 -157
-164 -295 -141 -201 -178 -290 -166 -398 13 -127 69 -211 278 -418 158 -156
158 -156 147 -187 -21 -61 -109 -116 -327 -203 -40 -16 -99 -42 -130 -58 -191
-97 -260 -238 -187 -386 45 -94 128 -146 300 -190 55 -15 174 -50 265 -80 91
-29 228 -72 305 -95 225 -67 412 -129 535 -178 93 -37 127 -56 175 -100 191
-172 498 -312 1080 -492 156 -48 348 -112 565 -188 95 -34 694 -257 810 -302
416 -162 960 -340 1330 -435 102 -26 221 -58 265 -71 44 -12 143 -39 220 -60
77 -20 214 -56 305 -81 443 -118 683 -163 868 -163 129 0 198 18 296 78 108
65 228 76 510 46 214 -23 251 -18 723 91 62 14 163 29 225 34 127 10 168 23
226 75 48 44 70 87 83 164 47 287 41 605 -21 1092 -35 277 -59 580 -65 805 -3
121 -14 333 -25 470 -43 540 -51 741 -56 1300 -6 856 -9 902 -66 1135 -38 154
-36 212 18 480 l36 185 -5 600 c-3 330 -11 697 -16 815 -6 118 -15 332 -21
475 -6 143 -22 427 -36 630 -24 352 -30 471 -54 980 -13 275 -3 430 41 621 26
109 33 163 33 249 1 101 -1 115 -27 168 -20 39 -42 66 -68 84 -37 24 -48 26
-142 26 -58 0 -152 -9 -217 -21 -192 -35 -279 -41 -690 -52 -217 -6 -548 -18
-735 -25 -860 -36 -1748 -43 -2040 -15 -60 6 -213 24 -340 40 -800 103 -875
110 -1145 110 -153 -1 -213 -4 -237 -15z m3312 -726 c486 -56 869 -386 986
-848 36 -143 40 -405 8 -596 -64 -394 -324 -721 -741 -935 -147 -76 -352 -149
-490 -176 -118 -22 -463 -29 -657 -12 l-154 14 64 -60 c167 -158 425 -294 701
-370 69 -19 148 -46 176 -60 99 -50 168 -168 160 -276 -8 -107 -84 -221 -175
-261 -67 -31 -120 -33 -249 -11 -363 62 -794 64 -1124 6 -959 -170 -1752 -798
-2108 -1669 -131 -320 -199 -605 -209 -881 -15 -399 98 -722 342 -983 343
-364 949 -557 1607 -512 204 14 293 27 483 73 372 88 781 289 1080 531 96 78
293 275 371 372 243 304 434 709 510 1085 37 183 39 392 6 523 -66 263 -242
438 -532 529 -68 21 -93 23 -280 23 -230 0 -283 -8 -474 -76 -355 -125 -664
-409 -846 -776 -62 -127 -82 -177 -126 -321 -48 -158 -83 -382 -94 -598 -7
-141 -14 -193 -29 -235 -25 -65 -95 -138 -161 -168 -55 -25 -148 -27 -213 -5
-60 20 -141 93 -175 158 -26 50 -27 55 -26 226 1 342 71 705 196 1020 181 455
468 811 863 1070 177 115 462 234 675 280 204 44 524 51 722 16 188 -34 429
-135 579 -243 93 -66 219 -191 295 -292 58 -78 149 -254 182 -356 52 -157 67
-268 67 -500 0 -258 -18 -383 -91 -624 -244 -804 -758 -1458 -1468 -1865 -293
-169 -614 -294 -943 -370 -307 -70 -533 -92 -868 -82 -262 7 -387 22 -600 71
-742 172 -1292 614 -1531 1232 -173 449 -176 963 -8 1522 329 1099 1126 1935
2189 2297 174 59 521 144 590 144 25 0 22 5 -43 83 -95 114 -123 157 -193 300
l-61 125 -42 6 c-261 38 -796 57 -986 36 -272 -30 -432 -89 -523 -193 -148
-169 -190 -193 -321 -185 -157 10 -263 114 -274 269 -8 121 43 222 180 357
220 217 540 330 1020 363 200 13 542 2 784 -27 l51 -6 12 116 c44 434 181 790
420 1091 264 334 672 576 1061 630 118 16 316 18 435 4z"/>
<path d="M6944 9304 c-329 -55 -631 -288 -793 -612 -84 -167 -146 -402 -158
-593 l-6 -98 34 -5 c125 -21 455 -51 664 -61 172 -9 317 16 482 80 158 62 271
132 369 230 106 106 149 187 169 322 41 272 -7 469 -146 598 -144 133 -361
182 -615 139z"/>
</g>
</svg>
